General
      Complete name : Cidade.de.Deus.[City.Of.God].2002.BRRip.H264.AAC.5.1ch.Gopo.mp4
      Format : MPEG-4
      Format profile : Base Media
      Codec ID : isom
      File size : 2.01 GiB
      Duration : 2h 9mn
      Overall bit rate : 2 218 Kbps
      Encoded date : UTC 2009-11-29 13:34:19
      Tagged date : UTC 2009-11-29 13:34:19
   Video #1
      ID : 1
      Format : AVC
      Format/Info : Advanced Video Codec
      Format profile : High@L4.1
      Format settings, CABAC : Yes
      Format settings, ReFrames : 4 frames
      Codec ID : avc1
      Codec ID/Info : Advanced Video Coding
      Duration : 2h 9mn
      Bit rate mode : Variable
      Bit rate : 1 849 Kbps
      Maximum bit rate : 4 943 Kbps
      Width : 1 280 pixels
      Height : 688 pixels
      Display aspect ratio : 1.860
      Frame rate mode : Constant
      Frame rate : 23.976 fps
      Resolution : 24 bits
      Colorimetry : 4:2:0
      Scan type : Progressive
      Bits/(Pixel*Frame) : 0.088
      Stream size : 1.67 GiB (83%)
      Writing library : x264 core 68 r1183M f21daff
      Encoding settings : cabac=1 / ref=4 / deblock=1:-1:-1 / analyse=0x3:0x113 / me=umh / subme=8 / psy_rd=1.0:0.0 / mixed_ref=1 / me_range=16 / chroma_me=1 / trellis=2 / 8x8dct=1 / cqm=0 / deadzone=21,11 / chroma_qp_offset=-2 / threads=3 / nr=0 / decimate=1 / mbaff=0 / bframes=3 / b_pyramid=0 / b_adapt=2 / b_bias=0 / direct=3 / wpredb=1 / keyint=250 / keyint_min=25 / scenecut=40 / rc=2pass / bitrate=1849 / ratetol=1.0 / qcomp=0.60 / qpmin=10 / qpmax=51 / qpstep=4 / cplxblur=20.0 / qblur=0.5 / vbv_maxrate=50000 / vbv_bufsize=50000 / ip_ratio=1.40 / pb_ratio=1.30 / aq=1:1.00
      Encoded date : UTC 2009-11-28 20:51:44
      Tagged date : UTC 2009-11-29 13:48:01
   Audio #2
      ID : 2
      Format : AAC
      Format/Info : Advanced Audio Codec
      Format version : Version 4
      Format profile : LC
      Format settings, SBR : No
      Codec ID : 40
      Duration : 2h 9mn
      Bit rate mode : Variable
      Bit rate : 365 Kbps
      Maximum bit rate : 396 Kbps
      Channel(s) : 6 channels
      Channel positions : Front: L C R, Rear: L R, LFE
      Sampling rate : 48.0 KHz
      Resolution : 16 bits
      Stream size : 338 MiB (16%)
      Encoded date : UTC 2009-11-29 13:46:43
      Tagged date : UTC 2009-11-29 13:48:01	
	Sample : YES	
	Subtitle : English,Romanian

PLOT

City of God is based on a true story that takes place in the 60's where in the slums of Rio De Janeiro two boys growing up in the neighborhood take on different paths in life. The story is told through eyes of Buscape, a poor young fisherman's son who dreams of becoming a photographer one day. His story narrates the violence and corruption surrounding the city and the rise and fall of one of the city's most notorious boss'. Li'l Ze. As war wages on the streets Buscape's only way out of this violent life is to expose its brutality the world through his pictures. Along the way the lives of other are put into perspective as their stories intersect with the events that take place.Directors: Fernando Meirelles , Kátia Lund (co-director)
CASTING
      
      Alexandre Rodrigues	... 	Buscapé - Rocket
	Leandro Firmino	... 	Zé Pequeno - Li'l Zé (as Leandro Firmino da Hora)
	Phellipe Haagensen	... 	Bené - Benny
	Douglas Silva	... 	Dadinho - Li'l Dice
	Jonathan Haagensen	... 	Cabeleira - Shaggy
	Matheus Nachtergaele	... 	Sandro Cenoura - Carrot
	Seu Jorge	... 	Mané Galinha - Knockout Ned
	Jefechander Suplino	... 	Alicate - Clipper
	Alice Braga	... 	Angélica
	Emerson Gomes	... 	Barbantinho - Stringy
	Edson Oliveira	... 	Barbantinho Adulto - Older Stringy
	Michel de Souza	... 	Bené Criança - Young Benny (as Michel De Souza Gomes)
	Roberta Rodrigues	... 	Berenice - Bernice
	Luis Otávio	... 	Buscapé Criança - Young Rocket
	Maurício Marques	... 	Cabeção - Melonhead

SOURCE: City.Of.God.2002.720p.BluRay.x264-SiNNERS.mkv

Notes: For best performance I suggest you to use KMPlayer(find it with google) for playback
I haven't tested the movies on a PS3 or Xbox or other devices than PC because I don't own one of them but feel free to test them if you have the oportunity.
